<svg width="20" height="20" viewBox="0 0 20 20" fill="none" xmlns="http://www.w3.org/2000/svg">
<g clip-path="url(#clip0_245_178)">
<path d="M5.6335 4.03337L4.1335 2.54171L2.9585 3.71671L4.45016 5.20837L5.6335 4.03337ZM0.833496 8.75004H3.3335V10.4167H0.833496V8.75004ZM9.16683 0.458374H10.8335V2.91671H9.16683V0.458374ZM15.8668 2.53754L17.0402 3.71004L15.5485 5.20171L14.376 4.02837L15.8668 2.53754ZM14.3668 15.1334L15.8585 16.6334L17.0335 15.4584L15.5335 13.9667L14.3668 15.1334ZM16.6668 8.75004H19.1668V10.4167H16.6668V8.75004ZM10.0002 4.58337C7.24183 4.58337 5.00016 6.82504 5.00016 9.58337C5.00016 12.3417 7.24183 14.5834 10.0002 14.5834C12.7585 14.5834 15.0002 12.3417 15.0002 9.58337C15.0002 6.82504 12.7585 4.58337 10.0002 4.58337ZM10.0002 12.9167C8.1585 12.9167 6.66683 11.425 6.66683 9.58337C6.66683 7.74171 8.1585 6.25004 10.0002 6.25004C11.8418 6.25004 13.3335 7.74171 13.3335 9.58337C13.3335 11.425 11.8418 12.9167 10.0002 12.9167ZM9.16683 16.25H10.8335V18.7084H9.16683V16.25ZM2.9585 15.45L4.1335 16.625L5.62516 15.125L4.45016 13.95L2.9585 15.45Z" fill="#E5E5E5"/>
</g>
<defs>
<clipPath id="clip0_245_178">
<rect width="20" height="20" fill="white"/>
</clipPath>
</defs>
</svg>
